<svg width="11" height="16" viewBox="0 0 11 16" fill="none" xmlns="http://www.w3.org/2000/svg">
<path fill-rule="evenodd" clip-rule="evenodd" d="M6.216 8L1.1291 2.43485C0.931743 2.23658 0.823483 1.96799 0.823483 1.68609C0.823483 1.40419 0.931743 1.13748 1.1291 0.938735L1.75623 0.3079C1.95343 0.109629 2.21622 0 2.49645 0C2.77683 0 3.03977 0.108846 3.23698 0.307117L10.1458 7.25272C10.3438 7.45178 10.4521 7.71692 10.4513 7.99898C10.4521 8.28261 10.3438 8.54791 10.1458 8.74665L3.23698 15.6929C3.03977 15.891 2.77699 16 2.49645 16C2.21622 16 1.95343 15.8908 1.75623 15.6929L1.1291 15.062C0.931743 14.8641 0.823483 14.5997 0.823483 14.3178C0.823483 14.0361 0.931743 13.7857 1.1291 13.5875L6.216 8Z" fill="#A3A9AE"/>
</svg>
