<svg width="48" height="48" viewBox="0 0 48 48" fill="none" xmlns="http://www.w3.org/2000/svg">
<path d="M13 23C13 22.4477 13.4477 22 14 22H34C34.5523 22 35 22.4477 35 23C35 23.5523 34.5523 24 34 24H14C13.4477 24 13 23.5523 13 23Z" fill="#333333"/>
<path d="M14 16C13.4477 16 13 16.4477 13 17C13 17.5523 13.4477 18 14 18H34C34.5523 18 35 17.5523 35 17C35 16.4477 34.5523 16 34 16H14Z" fill="#333333"/>
<path d="M13 29C13 28.4477 13.4477 28 14 28H34C34.5523 28 35 28.4477 35 29C35 29.5523 34.5523 30 34 30H14C13.4477 30 13 29.5523 13 29Z" fill="#333333"/>
<path d="M14 34C13.4477 34 13 34.4477 13 35C13 35.5523 13.4477 36 14 36H34C34.5523 36 35 35.5523 35 35C35 34.4477 34.5523 34 34 34H14Z" fill="#333333"/>
<path fill-rule="evenodd" clip-rule="evenodd" d="M18.75 2C17.11 2 16 3.47275 16 5V6.00007L11 6C9.67393 6 8.40215 6.52679 7.46447 7.46447C6.52678 8.40215 6 9.67392 6 11V39C6 40.3261 6.52678 41.5979 7.46447 42.5355C8.40215 43.4732 9.67392 44 11 44L37 44.0001C38.3261 44.0001 39.5979 43.4733 40.5355 42.5356C41.4732 41.5979 42 40.3262 42 39.0001V11.0001C42 9.67399 41.4732 8.40222 40.5355 7.46454C39.5979 6.52685 38.3261 6.00007 37 6.00007L32 6.00007V5C32 3.47275 30.89 2 29.25 2H18.75ZM18 5C18 4.31811 18.457 4 18.75 4H29.25C29.543 4 30 4.31811 30 5V9C30 9.68189 29.543 10 29.25 10H18.75C18.457 10 18 9.68189 18 9V5ZM32 8.00007V9C32 10.5272 30.89 12 29.25 12H18.75C17.11 12 16 10.5272 16 9V8.00007L11 8C10.2044 8.00001 9.44129 8.31608 8.87868 8.87868C8.31607 9.44129 8 10.2044 8 11V39C8 39.7957 8.31607 40.5587 8.87868 41.1213C9.44129 41.6839 10.2044 42 11 42L37 42.0001C37.7956 42.0001 38.5587 41.684 39.1213 41.1214C39.6839 40.5588 40 39.7957 40 39.0001V11.0001C40 10.2044 39.6839 9.44136 39.1213 8.87875C38.5587 8.31614 37.7956 8.00007 37 8.00007L32 8.00007Z" fill="#333333"/>
</svg>
