<svg width="48" height="48" viewBox="0 0 48 48" fill="none" xmlns="http://www.w3.org/2000/svg">
<g clip-path="url(#clip0)">
<path d="M8.00006 13V9H10.0001V13H8.00006Z" fill="#333333"/>
<path fill-rule="evenodd" clip-rule="evenodd" d="M4 9C4 7.34315 5.34315 6 7 6H39C40.6569 6 42 7.34314 42 9V13C42 14.6569 40.6569 16 39 16H7C5.34315 16 4 14.6569 4 13V9ZM7 8C6.44772 8 6 8.44772 6 9V13C6 13.5523 6.44772 14 7 14H39C39.5523 14 40 13.5523 40 13V9C40 8.44772 39.5523 8 39 8H7Z" fill="#333333"/>
<path d="M4 21C4 19.3431 5.34315 18 7 18H39C40.5815 18 41.8771 19.2237 41.9918 20.7758C41.2906 20.5959 40.5646 20.4777 39.82 20.4275C39.6392 20.169 39.3393 20 39 20H7C6.44772 20 6 20.4477 6 21V25C6 25.5523 6.44772 26 7 26H28.8472C28.4496 26.6295 28.1088 27.2986 27.8323 28H7C5.34315 28 4 26.6569 4 25V21Z" fill="#333333"/>
<path d="M27.24 30H7C5.34315 30 4 31.3431 4 33V37C4 38.6569 5.34315 40 7 40H29.7131C29.2066 39.3818 28.7606 38.7121 28.3841 38H7C6.44772 38 6 37.5523 6 37V33C6 32.4477 6.44772 32 7 32H27.0065C27.0289 31.3174 27.1083 30.6492 27.24 30Z" fill="#333333"/>
<path d="M8.00006 25V21H10.0001V25H8.00006Z" fill="#333333"/>
<path d="M8.00006 33V37H10.0001V33H8.00006Z" fill="#333333"/>
<path d="M38.852 25.3186C42.7999 25.3186 46.0002 28.5189 46.0002 32.4668C46.0002 36.4146 42.7999 39.6149 38.852 39.6149C36.8522 39.6149 35.0457 38.795 33.7472 37.4704C33.3606 37.076 32.7274 37.0697 32.3331 37.4564C31.9387 37.843 31.9324 38.4761 32.319 38.8705C33.9782 40.563 36.2932 41.6149 38.852 41.6149C43.9044 41.6149 48.0002 37.5191 48.0002 32.4668C48.0002 27.4144 43.9044 23.3186 38.852 23.3186C35.91 23.3186 33.438 24.7919 31.9228 26.6634C31.349 27.3722 30.8831 28.1815 30.5911 29.0223H29.1895C28.785 29.0223 28.4204 29.2659 28.2656 29.6396C28.1108 30.0133 28.1964 30.4434 28.4824 30.7294L30.9268 33.1739C31.1173 33.3644 31.3766 33.4699 31.646 33.4667C31.9154 33.4634 32.1721 33.3516 32.3579 33.1566L34.6871 30.7121C34.9631 30.4225 35.0399 29.9962 34.8824 29.6285C34.7248 29.2608 34.3632 29.0223 33.9632 29.0223H32.7562C32.9417 28.6579 33.181 28.2879 33.4773 27.9219C34.6667 26.4527 36.5945 25.3186 38.852 25.3186Z" fill="#333333"/>
<path d="M40 28C40 27.4477 39.5523 27 39 27C38.4477 27 38 27.4477 38 28V32.8888C38 33.2676 38.214 33.6139 38.5528 33.7833L41.812 35.4129C42.306 35.6599 42.9067 35.4597 43.1537 34.9657C43.4007 34.4717 43.2005 33.871 42.7065 33.624L40 32.2708V28Z" fill="#333333"/>
</g>
<defs>
<clipPath id="clip0">
<rect width="48" height="48" fill="white"/>
</clipPath>
</defs>
</svg>
