<svg width="34" height="35" viewBox="0 0 34 35" fill="none" xmlns="http://www.w3.org/2000/svg">
<path d="M17 30.75C9.83071 30.75 4 24.9164 4 17.75C4 10.5807 9.83071 4.75 17 4.75C24.1664 4.75 30 10.5807 30 17.75C30 24.9164 24.1664 30.75 17 30.75ZM17 5.91906C10.4766 5.91906 5.16906 11.2266 5.16906 17.75C5.16906 24.2734 10.4766 29.5809 17 29.5809C23.5234 29.5809 28.8309 24.2734 28.8309 17.75C28.8309 11.2266 23.5234 5.91906 17 5.91906Z" fill="#505050"/>
<path d="M17.0002 23.9839C13.5631 23.9839 10.7661 21.187 10.7661 17.7499C10.7661 14.3129 13.5631 11.5159 17.0002 11.5159C20.4372 11.5159 23.2342 14.3129 23.2342 17.7499C23.2342 21.187 20.4372 23.9839 17.0002 23.9839ZM17.0002 12.6849C14.2061 12.6849 11.9352 14.9588 11.9352 17.7499C11.9352 20.544 14.209 22.8149 17.0002 22.8149C19.7913 22.8149 22.0651 20.541 22.0651 17.7499C22.0651 14.9558 19.7942 12.6849 17.0002 12.6849Z" fill="#505050"/>
<path d="M15.8399 5.49512H14.8403V12.3225H15.8399V5.49512Z" fill="#505050"/>
<path d="M19.1597 5.49512H18.1602V12.3225H19.1597V5.49512Z" fill="#505050"/>
<path d="M15.8399 23.4844H14.8403V30.3117H15.8399V23.4844Z" fill="#505050"/>
<path d="M19.1597 23.4844H18.1602V30.3117H19.1597V23.4844Z" fill="#505050"/>
<path d="M4.25684 18.9099V19.9094H11.0842V18.9099H4.25684Z" fill="#505050"/>
<path d="M4.25732 15.5893V16.5889H11.0847V15.5893H4.25732Z" fill="#505050"/>
<path d="M22.2437 18.9106V19.9102H29.071V18.9106H22.2437Z" fill="#505050"/>
<path d="M22.2441 15.5898V16.5894H29.0715V15.5898H22.2441Z" fill="#505050"/>
</svg>
