<svg width="34" height="35" viewBox="0 0 34 35" fill="none" xmlns="http://www.w3.org/2000/svg">
<g clip-path="url(#clip0)">
<path d="M30.42 16.3096L28.72 15.5796L27.33 16.1696L29.9 17.2596C30.07 17.3296 30.14 17.3996 30.18 17.4296C30.15 17.4696 30.07 17.5296 29.9 17.5996L18.27 22.5596C17.95 22.6996 17.49 22.7796 17.01 22.7796C16.53 22.7796 16.07 22.6996 15.75 22.5596L4.11 17.5996C3.94 17.5296 3.86 17.4596 3.83 17.4296C3.86 17.3996 3.94 17.3296 4.11 17.2596L6.68 16.1696L5.28 15.5796L3.58 16.3096C2.74 16.6596 2.61 17.1696 2.61 17.4396C2.61 17.7096 2.74 18.2096 3.58 18.5696L15.21 23.5296C15.69 23.7396 16.33 23.8496 17 23.8496C17.66 23.8496 18.3 23.7396 18.79 23.5296L30.42 18.5696C31.27 18.2096 31.39 17.7096 31.39 17.4396C31.39 17.1696 31.26 16.6596 30.42 16.3096Z" fill="#505050"/>
<path d="M30.42 20.9097L28.74 20.1897L28.72 20.1797L27.33 20.7697L29.9 21.8597C30.07 21.9297 30.14 21.9897 30.18 22.0297C30.15 22.0697 30.07 22.1297 29.9 22.1997L18.27 27.1597C17.95 27.2997 17.49 27.3797 17.01 27.3797C16.53 27.3797 16.07 27.2997 15.75 27.1597L4.11 22.2097C3.95 22.1397 3.87 22.0697 3.83 22.0397C3.86 22.0097 3.94 21.9397 4.11 21.8697L6.68 20.7797L5.31 20.1997L5.29 20.1897L3.58 20.9097C2.74 21.2697 2.61 21.7697 2.61 22.0397C2.61 22.3097 2.74 22.8097 3.58 23.1697L15.21 28.1297C15.69 28.3397 16.33 28.4497 17 28.4497C17.66 28.4497 18.3 28.3397 18.79 28.1297L30.42 23.1697C31.27 22.8097 31.39 22.3097 31.39 22.0397C31.39 21.8297 31.31 21.2897 30.42 20.9097Z" fill="#505050"/>
<path d="M3.58 14.0898L15.21 19.0498C15.7 19.2598 16.33 19.3698 17 19.3698C17.66 19.3698 18.29 19.2598 18.79 19.0498L30.42 14.0898C31.27 13.7298 31.39 13.2298 31.39 12.9598C31.39 12.6898 31.26 12.1898 30.42 11.8298L18.79 6.8698C18.3 6.6598 17.66 6.5498 17 6.5498C16.33 6.5498 15.7 6.6598 15.21 6.8698L3.58 11.8298C2.74 12.1898 2.61 12.6998 2.61 12.9598C2.61 13.2198 2.74 13.7298 3.58 14.0898ZM3.83 12.9698C3.86 12.9398 3.94 12.8698 4.11 12.7998L15.74 7.8398C16.06 7.6998 16.52 7.6198 17 7.6198C17.48 7.6198 17.94 7.6998 18.26 7.8398L29.89 12.7998C30.05 12.8698 30.13 12.9298 30.16 12.9698C30.13 12.9998 30.05 13.0698 29.88 13.1398L18.25 18.0998C17.93 18.2398 17.47 18.3198 16.99 18.3198C16.51 18.3198 16.05 18.2398 15.73 18.0998L4.11 13.1298C3.94 13.0598 3.86 12.9998 3.83 12.9698Z" fill="#505050"/>
</g>
<defs>
<clipPath id="clip0">
<rect width="28.78" height="21.9" fill="white" transform="translate(2.61 6.5498)"/>
</clipPath>
</defs>
</svg>
