<?xml version="1.0" encoding="utf-8"?>
<!-- Generator: Adobe Illustrator 23.0.1, SVG Export Plug-In . SVG Version: 6.00 Build 0)  -->
<svg version="1.1" id="Layer_1" xmlns="http://www.w3.org/2000/svg" xmlns:xlink="http://www.w3.org/1999/xlink" x="0px" y="0px"
	 viewBox="0 0 34 35" style="enable-background:new 0 0 34 35;" xml:space="preserve">
<style type="text/css">
	.st0{fill:#505050;}
</style>
<g>
	<path class="st0" d="M5.9,14.5V20c0,5.6,4.5,10.1,10,10.1h2.2c5.5,0,10-4.5,10-10.1v-5.5H5.9z M26.8,15.9V20c0,4.8-3.9,8.8-8.7,8.8
		h-2.2c-4.8,0-8.7-3.9-8.7-8.8v-4.1H26.8z"/>
	<path class="st0" d="M10.1,13.2c0-3.8,3.1-6.9,6.9-6.9c3.8,0,6.9,3.1,6.9,6.9v0.1h1.3v-0.1c0-4.6-3.7-8.3-8.2-8.3
		c-4.5,0-8.2,3.7-8.2,8.3v0.1L10.1,13.2L10.1,13.2z"/>
	<path class="st0" d="M17,25.1c0.7,0,1.3-0.4,1.8-1.1c0.4-0.7,0.7-1.6,0.7-2.6c0-1-0.2-1.9-0.7-2.6c-0.5-0.7-1.1-1.1-1.8-1.1
		c-0.7,0-1.3,0.4-1.8,1.1c-0.5,0.7-0.7,1.6-0.7,2.6c0,1,0.2,1.9,0.7,2.6C15.7,24.8,16.3,25.1,17,25.1z M17.7,23.2
		c-0.1,0.2-0.2,0.4-0.4,0.5c-0.3,0.2-0.5,0.2-0.7,0c-0.1-0.1-0.3-0.3-0.4-0.5c-0.2-0.5-0.4-1-0.4-1.7s0.1-1.2,0.4-1.7
		c0.1-0.2,0.2-0.4,0.4-0.5c0.1-0.1,0.3-0.2,0.4-0.2s0.2,0.1,0.4,0.2c0.1,0.1,0.3,0.3,0.4,0.5c0.2,0.5,0.4,1,0.4,1.7
		S18,22.7,17.7,23.2z"/>
</g>
</svg>
