<?xml version="1.0" encoding="utf-8"?>
<!-- Generator: Adobe Illustrator 23.0.1, SVG Export Plug-In . SVG Version: 6.00 Build 0)  -->
<svg version="1.1" id="Layer_1" xmlns="http://www.w3.org/2000/svg" xmlns:xlink="http://www.w3.org/1999/xlink" x="0px" y="0px"
	 viewBox="0 0 34 35" style="enable-background:new 0 0 34 35;" xml:space="preserve">
<style type="text/css">
	.st0{fill:#505050;}
</style>
<g>
	<path class="st0" d="M23.3,5.4H10.7c-1.3,0-2.3,1-2.3,2.3v19.5c0,1.3,1.1,2.3,2.3,2.3h12.5c1.3,0,2.3-1,2.3-2.3V7.7
		C25.6,6.4,24.5,5.4,23.3,5.4z M9.7,7.7c0-0.6,0.5-1,1-1h12.5c0.6,0,1,0.5,1,1v19.5c0,0.6-0.5,1-1,1H10.7c-0.6,0-1-0.5-1-1V7.7z"/>
	<path class="st0" d="M17,27.2c0.6,0,1.1-0.6,1.1-1.3s-0.5-1.3-1.1-1.3c-0.6,0-1.1,0.6-1.1,1.3S16.4,27.2,17,27.2z"/>
</g>
</svg>
