<?xml version="1.0" encoding="utf-8"?>
<!-- Generator: Adobe Illustrator 23.0.1, SVG Export Plug-In . SVG Version: 6.00 Build 0)  -->
<svg version="1.1" id="Layer_1" xmlns="http://www.w3.org/2000/svg" xmlns:xlink="http://www.w3.org/1999/xlink" x="0px" y="0px"
	 viewBox="0 0 34 35" style="enable-background:new 0 0 34 35;" xml:space="preserve">
<style type="text/css">
	.st0{fill:#505050;}
</style>
<g>
	<path class="st0" d="M29.1,12c0-1.8-0.5-3.2-1.5-4.5L27.1,7c-1.2-1.1-2.8-1.6-4.6-1.6c0,0-0.1,0-0.1,0c-3.4,0-6.9,0-10.5,0
		c-1.9,0-3.3,0.4-4.5,1.3C6.8,7.1,6.4,7.4,6.2,7.8C5.3,9,4.9,10.4,4.9,12.3c0,3.6,0,7.1,0,10.5c0,1.9,0.5,3.5,1.6,4.8L7,28.1
		c1.2,1,2.7,1.5,4.4,1.5c0,0,0.1,0,0.1,0c4,0,7.6,0,10.8,0c0,0,0.1,0,0.1,0c1.9,0,3.4-0.5,4.7-1.6l0.1-0.1c0.1-0.1,0.2-0.2,0.2-0.2
		c1.1-1.3,1.7-2.8,1.6-4.8C29.1,19.5,29.1,15.9,29.1,12z M25.6,27.5c-0.5,0.4-1.4,0.8-2.8,0.8c0,0,0,0,0,0H10.9
		c-2,0-3.1-1.2-3.4-1.6c0,0-0.1-0.1-0.1-0.1c-0.6-0.6-1.2-1.8-1.2-3c0-1.1,0-10.6,0-11.7c0-2.6,1.4-3.9,2.5-4.5
		c0.5-0.3,1.5-0.6,2.6-0.6c0,0,0,0,0,0c1.1,0,10.6,0,11.7,0c1.3,0,2.4,0.6,3,1.2c0.6,0.5,1.7,2.1,1.7,3.5v1.7c0,3.1,0,9.2,0,10.1
		C27.8,24.7,26.7,26.7,25.6,27.5z"/>
	<path class="st0" d="M23.1,18.1C23,18,22.9,18,22.5,18c-0.1,0-0.1,0-0.2,0c-0.1,0-0.2,0-0.3,0.1c-0.1,0.1-0.1,0.2-0.1,0.3
		c0,0.5,0,1.7,0,2.5c0,0.3,0,0.6,0,0.8l-9.1-9.1c0.4,0,1.5,0,2.3,0l0.7,0c0.6,0,0.6,0,0.7-0.6l0-0.1c-0.1-0.6-0.2-0.6-0.6-0.6
		c-0.4,0-3.5,0-4.6,0h-0.1c-0.2,0-0.3,0-0.4,0.1c-0.1,0.1-0.1,0.2-0.1,0.3c0,1.1,0,4.4,0,4.5c0,0.4,0,0.7,0.1,0.8
		C11,17,11.2,17,11.6,17l0,0c0.3,0,0.4-0.1,0.4-0.4c0-0.5,0-1.7,0-2.5c0-0.2,0-0.5,0-0.6c1.2,1.2,7.8,7.8,8.9,8.9
		c-0.5,0-1.5,0-2.1,0c-0.2,0-0.4,0-0.5,0c-0.4,0-0.6,0-0.8,0.1c-0.1,0.1-0.1,0.4-0.1,0.8c0,0.2,0.1,0.3,0.3,0.3c0,0,0,0,0,0
		c0.2,0,1.9,0,3.3,0c0.7,0,1.4,0,1.8,0c0,0,0,0,0,0c0,0,0,0,0.1,0c0.1,0,0.2,0,0.2-0.1c0.1-0.1,0.1-0.2,0.1-0.3c0-1.1,0-4.4,0-4.5
		C23.3,18.4,23.3,18.2,23.1,18.1z M12.7,12.5L12.7,12.5L12.7,12.5L12.7,12.5z"/>
</g>
</svg>
