<svg width="34" height="35" viewBox="0 0 34 35" fill="none" xmlns="http://www.w3.org/2000/svg">
<path d="M28.9279 14.9728C28.5188 14.8521 28.2087 14.5495 28.0764 14.1426C27.9446 13.7357 28.0184 13.308 28.2782 12.9692C29.0788 11.9262 29.0974 10.5647 28.3263 9.49985C27.5547 8.43553 26.2575 8.03305 25.021 8.47392C24.6191 8.61703 24.1909 8.55562 23.8458 8.30393C23.5007 8.05279 23.3098 7.66348 23.3213 7.23577C23.3574 5.92032 22.5743 4.80775 21.3263 4.40088C20.0784 3.99457 18.7921 4.43323 18.0505 5.51839C17.8094 5.87097 17.4266 6.07385 17 6.07385C16.5734 6.07385 16.1906 5.87152 15.9495 5.51894C15.2079 4.43323 13.9216 3.99457 12.6737 4.40143C11.4257 4.8083 10.6426 5.92087 10.6787 7.23632C10.6907 7.66402 10.4993 8.05334 10.1542 8.30448C9.80914 8.55562 9.38094 8.61813 8.97898 8.47446C7.7425 8.03251 6.44531 8.43553 5.67367 9.5004C4.90203 10.5653 4.92117 11.9268 5.7218 12.9697C5.98211 13.3086 6.05539 13.7363 5.92359 14.1432C5.7918 14.55 5.48172 14.8527 5.07266 14.9733C3.81375 15.3446 3 16.4352 3 17.7512C3 19.0672 3.81375 20.1578 5.07266 20.5296C5.48172 20.6502 5.7918 20.9529 5.92359 21.3598C6.05539 21.7667 5.98156 22.1944 5.7218 22.5332C4.92117 23.5762 4.90258 24.9377 5.67367 26.0025C6.44531 27.0674 7.7425 27.4699 8.97898 27.029C9.38094 26.8859 9.80914 26.9479 10.1542 27.199C10.4993 27.4501 10.6902 27.8395 10.6787 28.2672C10.6426 29.5826 11.4257 30.6952 12.6737 31.1021C12.9827 31.2029 13.2944 31.2518 13.5995 31.2518C14.5254 31.2518 15.3916 30.801 15.9495 29.9845C16.1906 29.632 16.5734 29.4296 17 29.4296C17.4266 29.4296 17.8094 29.632 18.0505 29.9845C18.7921 31.0703 20.0784 31.5089 21.3263 31.1021C22.5743 30.6952 23.3574 29.5826 23.3213 28.2672C23.3093 27.8395 23.5007 27.4501 23.8458 27.199C24.1909 26.9479 24.6191 26.8854 25.021 27.029C26.2575 27.4699 27.5547 27.0674 28.3263 26.0025C29.098 24.9377 29.0788 23.5762 28.2782 22.5332C28.0179 22.1944 27.9446 21.7667 28.0764 21.3598C28.2082 20.9529 28.5183 20.6502 28.9279 20.5296C30.1868 20.1578 31 19.0672 31 17.7512C31 16.4352 30.1868 15.3446 28.9279 14.9728ZM28.4713 18.9756C27.5569 19.246 26.835 19.95 26.5402 20.8592C26.2455 21.7683 26.4166 22.7635 26.9985 23.5208C27.4267 24.0784 27.29 24.6767 27.0198 25.0501C26.7491 25.4235 26.2241 25.7388 25.563 25.5025C24.665 25.1822 23.668 25.3264 22.8964 25.8879C22.1253 26.45 21.6802 27.3558 21.707 28.3116C21.7261 29.0151 21.2656 29.4187 20.8276 29.5612C20.3895 29.7038 19.7803 29.6495 19.3838 29.0688C18.8452 28.2803 17.9543 27.8093 17.0005 27.8093C16.0468 27.8093 15.1565 28.2803 14.6173 29.0688C14.2202 29.6495 13.611 29.7038 13.1735 29.5612C12.7355 29.4187 12.275 29.0156 12.2941 28.3116C12.3204 27.3558 11.8758 26.45 11.1047 25.8879C10.6043 25.5233 10.0087 25.3347 9.40664 25.3347C9.08125 25.3347 8.75367 25.3901 8.43813 25.5025C7.77641 25.7382 7.25195 25.4235 6.98125 25.0501C6.71055 24.6767 6.57383 24.079 7.00258 23.5208C7.58391 22.763 7.75508 21.7683 7.46086 20.8592C7.16664 19.95 6.44422 19.246 5.52984 18.9756C4.85609 18.7766 4.61656 18.2123 4.61656 17.7506C4.61656 17.2889 4.85664 16.7247 5.52984 16.5262C6.44422 16.2559 7.16609 15.5518 7.46086 14.6427C7.75562 13.7335 7.58391 12.7383 7.00258 11.9811C6.57438 11.4234 6.71109 10.8252 6.98125 10.4518C7.25195 10.0783 7.77641 9.76305 8.43813 9.99938C9.33664 10.3196 10.333 10.1754 11.1047 9.6139C11.8758 9.05186 12.3209 8.14601 12.2941 7.19026C12.275 6.48675 12.7355 6.08317 13.1735 5.94061C13.6116 5.79804 14.2208 5.85233 14.6173 6.43356C15.1559 7.22207 16.0468 7.69309 17.0005 7.69309C17.9543 7.69309 18.8446 7.22207 19.3838 6.43356C19.7809 5.85287 20.3901 5.79804 20.8276 5.94061C21.2656 6.08317 21.7261 6.4862 21.707 7.19026C21.6807 8.14601 22.1253 9.05186 22.8964 9.6139C23.6675 10.1759 24.6645 10.3202 25.563 9.99938C26.2241 9.76305 26.7491 10.0783 27.0198 10.4518C27.2905 10.8252 27.4273 11.4229 26.9985 11.9811C26.4172 12.7389 26.2455 13.7335 26.5402 14.6427C26.835 15.5518 27.5569 16.2559 28.4713 16.5262C29.145 16.7253 29.3845 17.2889 29.3845 17.7506C29.3845 18.2129 29.1445 18.7771 28.4713 18.9756Z" fill="#505050"/>
<path d="M22.9103 13.3576C22.5718 13.0664 22.0616 13.1059 21.7712 13.4453L15.8026 20.4278L12.1003 17.6439C11.7437 17.3758 11.2373 17.4482 10.9693 17.8057C10.7013 18.1632 10.7741 18.671 11.1306 18.9396L15.4384 22.1792C15.5833 22.2883 15.7534 22.341 15.9224 22.341C16.1504 22.341 16.3768 22.2445 16.536 22.058L22.9973 14.4992C23.2882 14.1598 23.2494 13.6488 22.9103 13.3576Z" fill="#505050"/>
</svg>
