<svg width="48" height="48" viewBox="0 0 48 48" fill="none" xmlns="http://www.w3.org/2000/svg">
<path fill-rule="evenodd" clip-rule="evenodd" d="M24.3599 3.067C24.1283 2.97767 23.8717 2.97767 23.6401 3.067L8.64013 8.85271C8.2544 9.00149 8 9.37229 8 9.78571V23.2857C8 29.5063 12.018 34.5794 15.831 38.0112C17.7565 39.7441 19.6776 41.1021 21.1155 42.0264C21.8355 42.4893 22.4369 42.8451 22.8607 43.0864C23.0726 43.207 23.2403 43.2992 23.3564 43.3619C23.4144 43.3932 23.4596 43.4172 23.4909 43.4337L23.5275 43.4529L23.5378 43.4582L23.5409 43.4598L23.542 43.4604C23.5423 43.4606 23.5427 43.4607 24 42.5714L23.5427 43.4607C23.8297 43.6083 24.1703 43.6083 24.4573 43.4607L24 42.5714C24.4573 43.4607 24.4577 43.4606 24.458 43.4604L24.4591 43.4598L24.4622 43.4582L24.4725 43.4529L24.5091 43.4337C24.5404 43.4172 24.5856 43.3932 24.6436 43.3619C24.7597 43.2992 24.9274 43.207 25.1393 43.0864C25.5631 42.8451 26.1645 42.4893 26.8845 42.0264C28.3224 41.1021 30.2435 39.7441 32.169 38.0112C35.982 34.5794 40 29.5063 40 23.2857V9.78571C40 9.37229 39.7456 9.00149 39.3599 8.85271L24.3599 3.067ZM23.9442 41.4016C23.9633 41.4124 23.9819 41.4228 24 41.433C24.0467 41.4068 24.0966 41.3786 24.1497 41.3484C24.5463 41.1226 25.1167 40.7853 25.803 40.3441C27.1776 39.4604 29.0065 38.1666 30.831 36.5246C34.518 33.2063 38 28.6366 38 23.2857V10.4718L24 5.07181L10 10.4718V23.2857C10 28.6366 13.482 33.2063 17.169 36.5246C18.9935 38.1666 20.8224 39.4604 22.197 40.3441C22.8833 40.7853 23.4537 41.1226 23.8503 41.3484C23.8828 41.3669 23.9141 41.3846 23.9442 41.4016ZM32.7433 17.669C33.1128 17.2585 33.0795 16.6262 32.669 16.2567C32.2585 15.8873 31.6262 15.9205 31.2567 16.331L22.9618 25.5476L18.7071 21.2929C18.3166 20.9024 17.6834 20.9024 17.2929 21.2929C16.9024 21.6834 16.9024 22.3166 17.2929 22.7071L22.2929 27.7071C22.4869 27.9011 22.752 28.0069 23.0263 27.9997C23.3005 27.9925 23.5598 27.8729 23.7433 27.669L32.7433 17.669Z" fill="#333333"/>
</svg>
