<svg width="28" height="28" viewBox="0 0 28 28" fill="none" xmlns="http://www.w3.org/2000/svg">
<path fill-rule="evenodd" clip-rule="evenodd" d="M18.4171 5.72732H8.94651C8.3433 5.72732 7.63636 6.31287 7.63636 7.31823V10.1819C7.63636 10.5333 7.35146 10.8182 7 10.8182C6.64854 10.8182 6.36364 10.5333 6.36364 10.1819V7.31823C6.36364 5.73668 7.52004 4.45459 8.94651 4.45459H18.4171C19.8436 4.45459 21 5.73668 21 7.31823V20.6819C21 22.2634 19.8436 23.5455 18.4171 23.5455H8.94651C7.52004 23.5455 6.36364 22.2634 6.36364 20.6819V17.8182C6.36364 17.4668 6.64854 17.1819 7 17.1819C7.35146 17.1819 7.63636 17.4668 7.63636 17.8182V20.6819C7.63636 21.6872 8.3433 22.2728 8.94651 22.2728H18.4171C19.0203 22.2728 19.7273 21.6872 19.7273 20.6819V7.31823C19.7273 6.31287 19.0203 5.72732 18.4171 5.72732Z" fill="#333333"/>
<path fill-rule="evenodd" clip-rule="evenodd" d="M11.673 18.4999L15.7228 14.4501C15.9713 14.2015 15.9713 13.7987 15.7228 13.5501L11.673 9.50034C11.4245 9.25184 11.0216 9.25184 10.773 9.50034C10.5245 9.74884 10.5245 10.1518 10.773 10.4003L13.7365 13.3638H5.72738C5.37591 13.3638 5.09101 13.6487 5.09101 14.0001C5.09101 14.3515 5.37591 14.6365 5.72738 14.6365H13.7365L10.773 17.5999C10.5245 17.8484 10.5245 18.2514 10.773 18.4999C11.0216 18.7484 11.4245 18.7484 11.673 18.4999Z" fill="#333333"/>
</svg>
