<svg width="48" height="48" viewBox="0 0 48 48" fill="none" xmlns="http://www.w3.org/2000/svg">
<path d="M44 16.2599C44 16.0999 43.98 15.9299 43.94 15.7599C43.9 15.5899 43.86 15.4199 43.8 15.2799C43.75 15.1299 43.68 14.9899 43.59 14.8599C43.5 14.7299 43.39 14.5999 43.28 14.4799C43.16 14.3599 43.04 14.2499 42.91 14.1599C42.78 14.0699 42.64 13.9899 42.48 13.9199C42.32 13.8499 42.17 13.7999 42.01 13.7599C41.85 13.7199 41.68 13.6999 41.5 13.6999H37.24C38.44 12.4899 39.04 11.0299 39.04 9.29986C39.04 8.48986 38.9 7.74986 38.61 7.07986C38.32 6.40986 37.81 5.82986 37.07 5.34986C36.32 4.84986 35.41 4.60986 34.31 4.60986C33.87 4.60986 33.42 4.65986 32.96 4.74986C32.5 4.83986 32.07 4.98986 31.65 5.16986C31.23 5.35986 30.82 5.56986 30.42 5.79986C30.02 6.02986 29.63 6.28986 29.25 6.58986C28.87 6.88986 28.51 7.18986 28.16 7.49986C27.81 7.80986 27.47 8.14986 27.14 8.50986C26.81 8.86986 26.51 9.21986 26.22 9.55986C25.93 9.89986 25.65 10.2499 25.38 10.6099C25.11 10.9699 24.87 11.2999 24.66 11.5999C24.45 11.8999 24.26 12.1999 24.07 12.5299C23.52 11.6699 22.93 10.8399 22.29 10.0499C21.65 9.25986 20.88 8.41986 19.97 7.54986C19.06 6.67986 18.06 5.96986 16.96 5.42986C15.88 4.87986 14.79 4.60986 13.73 4.60986C12.63 4.60986 11.71 4.84986 10.97 5.33986C10.23 5.81986 9.72 6.39986 9.43 7.06986C9.14 7.73986 9 8.47986 9 9.28986C9 11.0099 9.61 12.4899 10.84 13.7299H6.5C5.8 13.7299 5.2 13.9799 4.72 14.4799C4.24 14.9699 4 15.5799 4 16.2999V23.9999H6.54V40.8099C6.54 41.5099 6.78 42.1099 7.26 42.6199C7.74 43.1299 8.33 43.3899 9.04 43.3899H39C39.7 43.3899 40.3 43.1299 40.78 42.6199C41.26 42.1099 41.5 41.4999 41.5 40.8099V24.0099H44V16.2599ZM34.31 7.18986C35.79 7.18986 36.54 7.88986 36.54 9.28986C36.54 10.1999 36.24 10.9999 35.64 11.6899C35.04 12.3799 34.29 12.8799 33.39 13.1999C32.49 13.5199 31.53 13.6799 30.52 13.6799H26.3C26.79 12.9299 27.32 12.2099 27.88 11.5199C28.44 10.8299 29.07 10.1499 29.77 9.45986C30.47 8.76986 31.22 8.21986 32.02 7.80986C32.82 7.39986 33.58 7.18986 34.31 7.18986ZM13.73 7.18986C15.14 7.18986 16.56 7.84986 18.01 9.16986C19.46 10.4899 20.74 11.9899 21.86 13.6899H17.64C16.05 13.6899 14.63 13.2899 13.38 12.4799C12.13 11.6699 11.5 10.5899 11.5 9.24986C11.5 7.95986 12.16 7.28986 13.49 7.22986C13.57 7.19986 13.65 7.18986 13.73 7.18986ZM41.5 21.4199H25.25V16.2599H41.5V21.4199ZM6.5 16.2599H22.75V21.4199H6.5V16.2599ZM9.04 24.0099H22.75V40.8199H9.04V24.0099ZM39 40.8199H25.25V24.0099H39V40.8199Z" fill="#333333"/>
</svg>
