<?xml version="1.0" encoding="utf-8"?>
<!-- Generator: Adobe Illustrator 23.0.1, SVG Export Plug-In . SVG Version: 6.00 Build 0)  -->
<svg version="1.1" id="Layer_1" xmlns="http://www.w3.org/2000/svg" xmlns:xlink="http://www.w3.org/1999/xlink" x="0px" y="0px"
	 viewBox="0 0 19 19" style="enable-background:new 0 0 19 19;" xml:space="preserve">
<style type="text/css">
	.st0{fill:#FFFFFF;}
</style>
<path class="st0" d="M18.7,5.6c0-0.1,0-0.2-0.1-0.2c0-0.1-0.1-0.2-0.1-0.2c0-0.1-0.1-0.1-0.2-0.2c-0.1-0.1-0.1-0.1-0.2-0.2
	c-0.1-0.1-0.1-0.1-0.2-0.1c-0.1,0-0.2-0.1-0.2-0.1c-0.1,0-0.2,0-0.3,0h-1.5c0.4-0.5,0.6-1.1,0.6-1.8c0-0.4-0.1-0.8-0.2-1.1
	c-0.1-0.3-0.4-0.6-0.8-0.9c-0.4-0.2-0.8-0.4-1.4-0.4c-0.2,0-0.4,0-0.6,0.1c-0.2,0-0.4,0.1-0.6,0.2c-0.2,0.1-0.4,0.2-0.6,0.3
	c-0.2,0.1-0.4,0.2-0.6,0.4c-0.2,0.1-0.3,0.3-0.5,0.4c-0.2,0.1-0.3,0.3-0.5,0.5c-0.1,0.2-0.3,0.3-0.4,0.5C10.2,2.8,10.1,3,10,3.2
	C9.8,3.3,9.7,3.5,9.6,3.6c0,0.1-0.1,0.1-0.1,0.2C9.3,3.5,9.1,3.2,8.9,2.9C8.6,2.5,8.2,2.1,7.8,1.7C7.4,1.3,6.9,1,6.4,0.7
	c-0.5-0.3-1-0.4-1.5-0.4c-0.5,0-1,0.1-1.4,0.4S2.9,1.2,2.8,1.6C2.6,1.9,2.5,2.3,2.5,2.7c0,0.7,0.2,1.3,0.6,1.9H1.6
	c-0.4,0-0.7,0.1-0.9,0.4c-0.3,0.3-0.4,0.6-0.4,1v3.8h1.1v7.6c0,0.4,0.1,0.7,0.4,1c0.3,0.3,0.6,0.4,0.9,0.4h13.5
	c0.4,0,0.7-0.1,0.9-0.4c0.3-0.3,0.4-0.6,0.4-1V9.7h1.1V5.9C18.7,5.8,18.7,5.7,18.7,5.6z M16.1,9.7v7.4h-5.8V9.7H16.1z M10.9,4.5
	c0.2-0.2,0.3-0.5,0.5-0.7c0.2-0.3,0.5-0.6,0.8-0.9c0.3-0.3,0.6-0.5,1-0.7c0.3-0.2,0.6-0.3,0.9-0.3c0.3,0,0.5,0.1,0.6,0.2
	c0.1,0.1,0.2,0.3,0.2,0.6c0,0.4-0.1,0.7-0.4,1c-0.2,0.3-0.6,0.5-0.9,0.6c-0.4,0.1-0.8,0.2-1.2,0.2H10.9z M17.2,6.1v2h-6.9v-2H17.2z
	 M8.7,9.7v7.4H3V9.7H8.7z M4.2,2.1C4.4,2,4.5,1.9,4.8,1.9l0,0c0,0,0,0,0,0c0.6,0,1.2,0.3,1.8,0.9c0.5,0.5,1.1,1.1,1.5,1.8H6.6
	C6,4.5,5.4,4.3,4.8,4C4.3,3.6,4.1,3.2,4.1,2.7C4.1,2.4,4.1,2.2,4.2,2.1z M8.7,6.1v2H1.8v-2H8.7z"/>
</svg>
