<svg width="48" height="48" viewBox="0 0 48 48" fill="none" xmlns="http://www.w3.org/2000/svg">
<path fill-rule="evenodd" clip-rule="evenodd" d="M34 9V16.1C36.1114 16.5286 37.7397 18.2877 37.9716 20.4641C37.2887 20.2588 36.5779 20.1181 35.8462 20.0491C35.4485 18.8583 34.3245 18 33 18H15C13.3431 18 12 19.3431 12 21V35C12 36.6569 13.3431 38 15 38H26.3143C26.941 38.7589 27.6676 39.4322 28.4738 40H15C12.2386 40 10 37.7614 10 35V21C10 18.581 11.7178 16.5633 14 16.1V9C14 6.23858 16.2386 4 19 4H29C31.7614 4 34 6.23858 34 9ZM16 9C16 7.34315 17.3431 6 19 6H29C30.6569 6 32 7.34315 32 9V16H16V9Z" fill="#333333"/>
<path d="M38.7071 29.7071C39.0976 29.3166 39.0976 28.6834 38.7071 28.2929C38.3166 27.9024 37.6834 27.9024 37.2929 28.2929L34 31.5858L32.7071 30.2929C32.3166 29.9024 31.6834 29.9024 31.2929 30.2929C30.9024 30.6834 30.9024 31.3166 31.2929 31.7071L33.2929 33.7071C33.6834 34.0976 34.3166 34.0976 34.7071 33.7071L38.7071 29.7071Z" fill="#333333"/>
<path fill-rule="evenodd" clip-rule="evenodd" d="M26 31C26 26.0294 30.0294 22 35 22C39.9706 22 44 26.0294 44 31C44 35.9706 39.9706 40 35 40C30.0294 40 26 35.9706 26 31ZM35 24C31.134 24 28 27.134 28 31C28 34.866 31.134 38 35 38C38.866 38 42 34.866 42 31C42 27.134 38.866 24 35 24Z" fill="#333333"/>
</svg>
