<svg width="48" height="48" viewBox="0 0 48 48" fill="none" xmlns="http://www.w3.org/2000/svg">
<path fill-rule="evenodd" clip-rule="evenodd" d="M18.75 0C17.11 0 16 1.47275 16 3V4.00007L11 4C9.67393 4 8.40215 4.52679 7.46447 5.46447C6.52678 6.40215 6 7.67392 6 9V37C6 38.3261 6.52678 39.5979 7.46447 40.5355C8.40215 41.4732 9.67392 42 11 42L26.6728 42C26.9753 41.2799 27.403 40.6037 27.9998 40L11 40C10.2044 40 9.44129 39.6839 8.87868 39.1213C8.31607 38.5587 8 37.7957 8 37V9C8 8.20435 8.31607 7.44129 8.87868 6.87868C9.44129 6.31608 10.2043 6.00001 11 6L15.9998 6.00007L16 7C16 8.52725 17.11 10 18.75 10H29.25C30.89 10 32 8.52725 32 7V6.00007L37 6.00007C37.7956 6.00007 38.5587 6.31614 39.1213 6.87875C39.6839 7.44136 40 8.20442 40 9.00007V24.1982C40.7196 24.3462 41.389 24.574 42 24.8702V9.00007C42 7.67399 41.4732 6.40222 40.5355 5.46454C39.5979 4.52685 38.3261 4.00007 37 4.00007L32 4.00007V3C32 1.47275 30.89 0 29.25 0H18.75ZM18 3C18 2.31811 18.457 2 18.75 2H29.25C29.543 2 30 2.31811 30 3V7C30 7.68189 29.543 8 29.25 8H18.75C18.457 8 18 7.68189 18 7V3Z" fill="#333333"/>
<path d="M30.2161 34C30.0988 33.3385 30.0407 32.6549 30.0158 32H14C13.4477 32 13 32.4477 13 33C13 33.5523 13.4477 34 14 34H30.2161Z" fill="#333333"/>
<path d="M30.7417 28C31.1261 27.2486 31.6515 26.5729 32.2978 26H14C13.4477 26 13 26.4477 13 27C13 27.5523 13.4477 28 14 28H30.7417Z" fill="#333333"/>
<path d="M13 21C13 20.4477 13.4477 20 14 20H34C34.5523 20 35 20.4477 35 21C35 21.5523 34.5523 22 34 22H14C13.4477 22 13 21.5523 13 21Z" fill="#333333"/>
<path d="M14 14C13.4477 14 13 14.4477 13 15C13 15.5523 13.4477 16 14 16H34C34.5523 16 35 15.5523 35 15C35 14.4477 34.5523 14 34 14H14Z" fill="#333333"/>
<path fill-rule="evenodd" clip-rule="evenodd" d="M32 32C32 28.6863 34.6863 26 38 26C41.3137 26 44 28.6863 44 32C44 35.3137 41.3137 38 38 38C34.6863 38 32 35.3137 32 32ZM38 28C35.7909 28 34 29.7909 34 32C34 34.2091 35.7909 36 38 36C40.2091 36 42 34.2091 42 32C42 29.7909 40.2091 28 38 28Z" fill="#333333"/>
<path d="M29.8395 42.3162C31.0371 40.8647 32.7072 40 34.5 40H41.4996C43.2924 40 44.9625 40.8647 46.16 42.3162C46.6987 42.9692 47.1704 43.6239 47.4992 44.3858C47.8339 45.161 48 45.9976 48 47C48 47.5523 47.5523 48 47 48C46.4477 48 46 47.5523 46 47C46 46.2343 45.8762 45.6723 45.663 45.1784C45.4441 44.6712 45.1101 44.1863 44.6173 43.589C43.7519 42.5401 42.6242 42 41.4996 42H34.5C33.3754 42 32.2477 42.5401 31.3823 43.589C30.8895 44.1863 30.5557 44.6711 30.3368 45.1783C30.1237 45.6722 30 46.2342 30 47C30 47.5523 29.5523 48 29 48C28.4477 48 28 47.5523 28 47C28 45.9977 28.166 45.1612 28.5005 44.3859C28.8293 43.624 29.3008 42.9692 29.8395 42.3162Z" fill="#333333"/>
</svg>
