<svg width="185" height="35" viewBox="0 0 185 35" fill="none" xmlns="http://www.w3.org/2000/svg">
<g clip-path="url(#clip0)">
<path d="M108.793 10.6173C108.793 7.72505 109.637 5.5422 111.38 4.12334C113.067 2.64992 115.092 1.94049 117.397 1.94049C119.703 1.94049 121.671 2.64992 123.358 4.12334C125.045 5.59677 125.889 7.72505 125.889 10.6719C125.889 13.5642 125.045 15.747 123.358 17.1659C121.671 18.6393 119.647 19.3487 117.397 19.3487C115.092 19.3487 113.124 18.6393 111.38 17.1659C109.693 15.6925 108.793 13.5096 108.793 10.6173ZM112.505 10.6173C112.505 12.6365 112.899 14.0553 113.63 14.983C114.417 15.9108 115.204 16.511 116.16 16.7293C116.385 16.7839 116.554 16.8385 116.779 16.8385C116.947 16.8385 117.172 16.893 117.341 16.893C117.566 16.893 117.735 16.893 117.96 16.8385C118.185 16.8385 118.353 16.7839 118.578 16.7293C119.478 16.511 120.322 15.9108 121.053 14.983C121.784 14.0553 122.177 12.5819 122.177 10.6719C122.177 8.70733 121.784 7.28848 121.053 6.36077C120.322 5.43306 119.478 4.83277 118.578 4.61449C118.353 4.55991 118.128 4.50534 117.96 4.50534C117.735 4.50534 117.566 4.45077 117.341 4.45077C117.116 4.45077 116.947 4.45077 116.779 4.50534C116.61 4.50534 116.385 4.55991 116.16 4.61449C115.26 4.83277 114.417 5.43306 113.63 6.36077C112.899 7.17934 112.505 8.65276 112.505 10.6173Z" fill="#333333"/>
<path d="M128.363 2.10421H138.148V4.94192H131.906V9.08934H137.867V11.9816H131.906V19.1305H128.363V2.10421Z" fill="#333333"/>
<path d="M140.791 2.10421H150.576V4.94192H144.334V9.08934H150.295V11.9816H144.334V19.1305H140.791V2.10421Z" fill="#333333"/>
<path d="M152.656 19.1305V2.10421H156.199V19.1305H152.656Z" fill="#333333"/>
<path d="M171.809 2.48607V5.43292C171.191 5.21463 170.572 5.05092 169.897 4.94178C169.223 4.83263 168.435 4.77806 167.648 4.77806C165.792 4.77806 164.386 5.32378 163.374 6.46978C162.362 7.5612 161.856 8.98006 161.856 10.6718C161.856 12.3089 162.306 13.6732 163.262 14.7646C164.218 15.856 165.567 16.4563 167.311 16.4563C167.929 16.4563 168.548 16.4018 169.279 16.3472C170.01 16.238 170.741 16.0743 171.528 15.7469L171.753 18.6392C171.641 18.6938 171.472 18.7483 171.303 18.8029C171.078 18.8575 170.853 18.912 170.572 18.9666C170.122 19.0758 169.56 19.1303 168.885 19.2395C168.21 19.294 167.536 19.3486 166.804 19.3486C166.692 19.3486 166.58 19.3486 166.523 19.3486C166.411 19.3486 166.298 19.3486 166.242 19.3486C164.218 19.2395 162.362 18.4755 160.675 17.1658C158.988 15.8015 158.144 13.6732 158.144 10.8355C158.144 8.05234 158.988 5.86949 160.619 4.34149C162.249 2.8135 164.499 2.0495 167.254 2.0495C167.985 2.0495 168.66 2.0495 169.223 2.10407C169.841 2.15864 170.403 2.26778 171.022 2.37693C171.135 2.4315 171.303 2.4315 171.416 2.48607C171.528 2.4315 171.641 2.48607 171.809 2.48607Z" fill="#333333"/>
<path d="M174.621 2.10421H185.137V4.7782H178.22V9.03477H184.462V11.6542H178.22V16.4565H185.137V19.1305H174.621V2.10421Z" fill="#333333"/>
<path fill-rule="evenodd" clip-rule="evenodd" d="M49.41 4.12334C47.6668 5.5422 46.8232 7.72505 46.8232 10.6173C46.8232 13.5096 47.6668 15.6925 49.41 17.1659C51.1533 18.6393 53.1215 19.3487 55.4271 19.3487C57.6765 19.3487 59.7009 18.6393 61.3879 17.1659C63.075 15.747 63.9185 13.5642 63.9185 10.6719C63.9185 7.72505 63.075 5.59677 61.3879 4.12334C59.7009 2.64992 57.7327 1.94049 55.4271 1.94049C53.1215 1.94049 51.0971 2.64992 49.41 4.12334ZM51.6594 14.983C50.9284 14.0553 50.5347 12.6365 50.5347 10.6173C50.5347 8.65277 50.9284 7.17934 51.6594 6.36077C52.4467 5.43306 53.2902 4.83277 54.1899 4.61449C54.4149 4.55992 54.6398 4.50534 54.8085 4.50534C54.9772 4.45077 55.1459 4.45077 55.3709 4.45077C55.4833 4.45077 55.5817 4.46441 55.6802 4.47806C55.7786 4.4917 55.877 4.50534 55.9894 4.50534C56.1581 4.50534 56.3831 4.55992 56.608 4.61449C57.5078 4.83277 58.3513 5.43306 59.0823 6.36077C59.8134 7.28848 60.207 8.70734 60.207 10.6719C60.207 12.5819 59.8134 14.0553 59.0823 14.983C58.3513 15.9108 57.5078 16.511 56.608 16.7293C56.5694 16.7387 56.5325 16.748 56.4967 16.7571C56.3236 16.801 56.1758 16.8385 55.9894 16.8385C55.7645 16.893 55.5958 16.893 55.3709 16.893C55.2865 16.893 55.1881 16.8794 55.0897 16.8658C54.9913 16.8521 54.8929 16.8385 54.8085 16.8385C54.6222 16.8385 54.4744 16.801 54.3013 16.7571C54.2655 16.748 54.2285 16.7387 54.1899 16.7293C53.2902 16.511 52.4467 15.9108 51.6594 14.983Z" fill="#333333"/>
<path d="M70.3854 2.10421H65.7742V19.1305H69.317V9.08934L69.2607 6.08791H69.317L70.2167 7.99791L76.29 19.1305H80.9013V2.10421H77.3585V12.0908L77.4147 15.1468H77.3585L76.4587 12.8002L70.3854 2.10421Z" fill="#333333"/>
<path d="M84.5566 2.10421H88.0993V16.2382H95.0724V19.1305H84.5566V2.10421Z" fill="#333333"/>
<path d="M96.9844 2.10421H92.8793L99.3463 12.1453V19.1305H102.889V12.1999L109.244 2.10421H105.476L101.821 8.05248L101.258 9.25305H101.146L100.583 8.05248L96.9844 2.10421Z" fill="#333333"/>
<path fill-rule="evenodd" clip-rule="evenodd" d="M16.4426 34.0373L1.11615 27.044C-0.189434 26.4335 -0.189434 25.4899 1.11615 24.9349L6.45204 22.4928L16.3859 27.044C17.6914 27.6545 19.7917 27.6545 21.0406 27.044L30.9744 22.4928L36.3103 24.9349C37.6159 25.5454 37.6159 26.489 36.3103 27.044L20.9838 34.0373C19.7917 34.5923 17.6914 34.5923 16.4426 34.0373Z" fill="#FF6F3D"/>
<path fill-rule="evenodd" clip-rule="evenodd" d="M16.4426 25.4345L1.11615 18.4412C-0.189434 17.8307 -0.189434 16.8872 1.11615 16.3321L6.33851 13.9455L16.4426 18.5522C17.7482 19.1628 19.8485 19.1628 21.0973 18.5522L31.2014 13.9455L36.4238 16.3321C37.7294 16.9427 37.7294 17.8862 36.4238 18.4412L21.0973 25.4345C19.7917 26.045 17.6914 26.045 16.4426 25.4345Z" fill="#95C038"/>
<path fill-rule="evenodd" clip-rule="evenodd" d="M16.4426 17.0536L1.11615 10.0603C-0.189434 9.44976 -0.189434 8.50622 1.11615 7.9512L16.4426 0.957895C17.7482 0.347368 19.8485 0.347368 21.0973 0.957895L36.4238 7.9512C37.7294 8.56172 37.7294 9.50527 36.4238 10.0603L21.0973 17.0536C19.7917 17.6086 17.6914 17.6086 16.4426 17.0536Z" fill="#5DC0E8"/>
<path d="M51.3011 26.824C50.618 26.824 50.0809 27.0661 49.6896 27.5502C49.2984 28.0343 49.1027 28.7024 49.1027 29.5546C49.1027 30.4465 49.2901 31.1213 49.6648 31.5789C50.0428 32.0364 50.5882 32.2652 51.3011 32.2652C51.6095 32.2652 51.9079 32.2354 52.1964 32.1757C52.4848 32.1127 52.7849 32.0331 53.0966 31.937V32.9566C52.5263 33.1721 51.8797 33.2799 51.1569 33.2799C50.0925 33.2799 49.2752 32.9582 48.7048 32.315C48.1345 31.6684 47.8494 30.7449 47.8494 29.5446C47.8494 28.7886 47.987 28.1271 48.2622 27.5601C48.5407 26.9931 48.9419 26.5588 49.4658 26.257C49.9897 25.9553 50.6048 25.8044 51.311 25.8044C52.0538 25.8044 52.7402 25.9603 53.3701 26.2719L52.9424 27.2617C52.697 27.1456 52.4368 27.0445 52.1615 26.9583C51.8897 26.8688 51.6028 26.824 51.3011 26.824Z" fill="#333333"/>
<path d="M62.7489 29.5347C62.7489 30.7184 62.4522 31.6385 61.8586 32.2951C61.2684 32.9516 60.4312 33.2799 59.3469 33.2799C58.2494 33.2799 57.4055 32.9549 56.8153 32.305C56.2284 31.6518 55.935 30.725 55.935 29.5247C55.935 28.3244 56.2301 27.4026 56.8203 26.7594C57.4138 26.1161 58.2593 25.7945 59.3569 25.7945C60.4378 25.7945 61.2734 26.1211 61.8636 26.7743C62.4538 27.4275 62.7489 28.3476 62.7489 29.5347ZM57.1983 29.5347C57.1983 30.4299 57.379 31.1097 57.7404 31.5739C58.1018 32.0348 58.6373 32.2652 59.3469 32.2652C60.0532 32.2652 60.5854 32.0364 60.9435 31.5789C61.3049 31.1213 61.4856 30.4399 61.4856 29.5347C61.4856 28.6427 61.3066 27.9663 60.9484 27.5054C60.5937 27.0445 60.0631 26.8141 59.3569 26.8141C58.644 26.8141 58.1052 27.0445 57.7404 27.5054C57.379 27.9663 57.1983 28.6427 57.1983 29.5347Z" fill="#333333"/>
<path d="M71.9984 33.1804H70.5411L66.965 27.386H66.9252L66.9501 27.7093C66.9965 28.3261 67.0197 28.8898 67.0197 29.4004V33.1804H65.9404V25.9089H67.3828L70.9489 31.6734H70.9788C70.9721 31.5971 70.9589 31.3202 70.939 30.8427C70.9191 30.362 70.9091 29.9873 70.9091 29.7187V25.9089H71.9984V33.1804Z" fill="#333333"/>
<path d="M78.0597 33.1804H76.871V26.9285H74.7323V25.9089H80.1984V26.9285H78.0597V33.1804Z" fill="#333333"/>
<path d="M84.1359 29.291H84.9616C85.5153 29.291 85.9165 29.1882 86.1652 28.9826C86.4139 28.777 86.5382 28.472 86.5382 28.0674C86.5382 27.6563 86.4039 27.3612 86.1354 27.1821C85.8668 27.0031 85.4623 26.9135 84.9218 26.9135H84.1359V29.291ZM84.1359 30.2757V33.1804H82.9472V25.9089H85.0014C85.9397 25.9089 86.6344 26.0846 87.0853 26.4361C87.5363 26.7875 87.7618 27.3181 87.7618 28.0276C87.7618 28.9329 87.2909 29.5778 86.3492 29.9624L88.4034 33.1804H87.0505L85.3097 30.2757H84.1359Z" fill="#333333"/>
<path d="M97.5484 29.5347C97.5484 30.7184 97.2516 31.6385 96.6581 32.2951C96.0679 32.9516 95.2306 33.2799 94.1464 33.2799C93.0488 33.2799 92.205 32.9549 91.6148 32.305C91.0279 31.6518 90.7344 30.725 90.7344 29.5247C90.7344 28.3244 91.0295 27.4026 91.6197 26.7594C92.2133 26.1161 93.0588 25.7945 94.1563 25.7945C95.2373 25.7945 96.0728 26.1211 96.663 26.7743C97.2533 27.4275 97.5484 28.3476 97.5484 29.5347ZM91.9977 29.5347C91.9977 30.4299 92.1784 31.1097 92.5399 31.5739C92.9013 32.0348 93.4368 32.2652 94.1464 32.2652C94.8526 32.2652 95.3848 32.0364 95.7429 31.5789C96.1043 31.1213 96.285 30.4399 96.285 29.5347C96.285 28.6427 96.106 27.9663 95.7479 27.5054C95.3931 27.0445 94.8626 26.8141 94.1563 26.8141C93.4434 26.8141 92.9046 27.0445 92.5399 27.5054C92.1784 27.9663 91.9977 28.6427 91.9977 29.5347Z" fill="#333333"/>
<path d="M100.74 33.1804V25.9089H101.929V32.1608H105.007V33.1804H100.74Z" fill="#333333"/>
<path d="M116.981 28.1072C116.981 28.8665 116.732 29.4485 116.235 29.853C115.737 30.2575 115.029 30.4598 114.111 30.4598H113.355V33.1804H112.166V25.9089H114.26C115.169 25.9089 115.848 26.0945 116.299 26.4659C116.754 26.8373 116.981 27.3844 116.981 28.1072ZM113.355 29.4601H113.987C114.597 29.4601 115.044 29.354 115.329 29.1418C115.615 28.9295 115.757 28.598 115.757 28.147C115.757 27.7292 115.63 27.4175 115.374 27.212C115.119 27.0064 114.721 26.9036 114.181 26.9036H113.355V29.4601Z" fill="#333333"/>
<path d="M124.574 33.1804L123.848 31.1611H121.067L120.356 33.1804H119.103L121.823 25.879H123.117L125.837 33.1804H124.574ZM123.534 30.1365L122.853 28.157C122.803 28.0243 122.734 27.8154 122.644 27.5303C122.558 27.2451 122.498 27.0362 122.465 26.9036C122.376 27.3114 122.245 27.7574 122.072 28.2415L121.416 30.1365H123.534Z" fill="#333333"/>
<path d="M134.485 33.1804H133.028L129.452 27.386H129.412L129.437 27.7093C129.483 28.3261 129.506 28.8898 129.506 29.4004V33.1804H128.427V25.9089H129.869L133.435 31.6734H133.465C133.459 31.5971 133.445 31.3202 133.425 30.8427C133.406 30.362 133.396 29.9873 133.396 29.7187V25.9089H134.485V33.1804Z" fill="#333333"/>
<path d="M142.148 33.1804H138.035V25.9089H142.148V26.9135H139.223V28.8931H141.964V29.8878H139.223V32.1707H142.148V33.1804Z" fill="#333333"/>
<path d="M145.354 33.1804V25.9089H146.543V32.1608H149.622V33.1804H145.354Z" fill="#333333"/>
</g>
<defs>
<clipPath id="clip0">
<rect width="185" height="35" fill="white"/>
</clipPath>
</defs>
</svg>
