<svg width="48" height="48" viewBox="0 0 48 48" fill="none" xmlns="http://www.w3.org/2000/svg">
<path d="M5 33C5 31.8954 5.89543 31 7 31H39C40.1046 31 41 31.8954 41 33V37C41 38.1046 40.1046 39 39 39H7C5.89543 39 5 38.1046 5 37V33Z" stroke="#333333" stroke-width="2"/>
<path d="M5 21C5 19.8954 5.89543 19 7 19H39C40.1046 19 41 19.8954 41 21V25C41 26.1046 40.1046 27 39 27H7C5.89543 27 5 26.1046 5 25V21Z" stroke="#333333" stroke-width="2"/>
<path d="M5 9C5 7.89543 5.89543 7 7 7H39C40.1046 7 41 7.89543 41 9V13C41 14.1046 40.1046 15 39 15H7C5.89543 15 5 14.1046 5 13V9Z" stroke="#333333" stroke-width="2"/>
<rect x="8" y="33" width="2" height="4" fill="#333333"/>
<rect x="8" y="21" width="2" height="4" fill="#333333"/>
<rect x="8" y="9" width="2" height="4" fill="#333333"/>
<circle cx="23" cy="23" r="10" fill="white"/>
<path d="M25 21L23 21C20.2386 21 18 23.2386 18 26L18 26.5" stroke="#333333" stroke-width="2" stroke-linecap="round"/>
<path d="M24 23.865C24 24.7128 24.9889 25.176 25.6402 24.6332L29.0781 21.7682C29.5579 21.3684 29.5579 20.6316 29.0781 20.2318L25.6402 17.3668C24.9889 16.824 24 17.2872 24 18.135L24 23.865Z" fill="#333333"/>
</svg>
