<svg width="15" height="15" viewBox="0 0 15 15" fill="none" xmlns="http://www.w3.org/2000/svg">
<path d="M13.0027 1H11.0027V0H10.0027V1H4.00267V0H3.00267V1H1.00267C0.869777 0.989503 0.736263 1.01004 0.61267 1.06C0.48726 1.10824 0.371953 1.17946 0.27267 1.27C0.182129 1.36928 0.11091 1.48459 0.0626704 1.61C0.0127141 1.73359 -0.00782648 1.86711 0.00267045 2V13C-0.00782648 13.1329 0.0127141 13.2664 0.0626704 13.39C0.11091 13.5154 0.182129 13.6307 0.27267 13.73C0.371953 13.8205 0.48726 13.8918 0.61267 13.94C0.736263 13.99 0.869777 14.0105 1.00267 14H13.0027C13.1356 14.0105 13.2691 13.99 13.3927 13.94C13.5207 13.8973 13.6371 13.8253 13.7326 13.7299C13.828 13.6344 13.9 13.5181 13.9427 13.39C13.9926 13.2664 14.0132 13.1329 14.0027 13V2C14.0132 1.86711 13.9926 1.73359 13.9427 1.61C13.8944 1.48459 13.8232 1.36928 13.7327 1.27C13.6334 1.17946 13.5181 1.10824 13.3927 1.06C13.2691 1.01004 13.1356 0.989503 13.0027 1ZM13.0027 13H1.00267V4H13.0027V13Z" fill="#333333"/>
<path d="M5.00269 6H3.00269V8H5.00269V6Z" fill="#333333"/>
<path d="M8.00269 6H6.00269V8H8.00269V6Z" fill="#333333"/>
<path d="M11.0027 6H9.00269V8H11.0027V6Z" fill="#333333"/>
<path d="M5.00269 9H3.00269V11H5.00269V9Z" fill="#333333"/>
<path d="M8.00269 9H6.00269V11H8.00269V9Z" fill="#333333"/>
<path d="M11.0027 9H9.00269V11H11.0027V9Z" fill="#333333"/>
</svg>
