<svg width="48" height="48" viewBox="0 0 48 48" fill="none" xmlns="http://www.w3.org/2000/svg">
<path fill-rule="evenodd" clip-rule="evenodd" d="M39.0335 14.0972C40.9085 16.938 42 20.3415 42 24C42 33.9411 33.9411 42 24 42C14.0589 42 6 33.9411 6 24C6 14.0589 14.0589 6 24 6C29.4101 6 34.2627 8.38677 37.5623 12.1648C38.2697 12.5949 38.8035 13.2824 39.0335 14.0972ZM26.6376 39.7836C25.7795 39.926 24.8984 40 24 40C21.6396 40 19.3985 39.4889 17.3815 38.5712C18.701 38.2675 19.9856 37.8324 21.2266 37.2834C21.8228 37.8575 22.6333 38.2105 23.5263 38.2105C23.8256 38.2105 24.1156 38.1709 24.3914 38.0965C25.1987 38.7693 25.9649 39.333 26.6376 39.7836ZM20.2105 34.8947C20.2105 34.5689 20.2575 34.2541 20.3451 33.9566C19.4758 32.8533 18.6589 31.6296 17.9615 30.2906C16.4531 27.3943 15.4991 23.9489 15.7969 20.0245C15.5948 19.9536 15.4016 19.8637 15.2196 19.7569C12.3795 22.3703 10.7633 25.6631 9.22801 28.7912C9.12907 28.9928 9.03046 29.1937 8.93188 29.3936C10.104 32.6679 12.3131 35.4487 15.1634 37.3405C16.9547 37.1192 18.6986 36.6286 20.3693 35.9115C20.2662 35.5911 20.2105 35.2494 20.2105 34.8947ZM13.8529 18.2165C13.9166 18.3629 13.9905 18.5037 14.0738 18.6382C11.3603 21.1623 9.69129 24.2426 8.29301 27.0637C8.10072 26.0721 8 25.0478 8 24C8 22.4736 8.21374 20.9972 8.61292 19.5989C9.96915 18.9942 11.7738 18.4596 13.8529 18.2165ZM17.3422 13.6089C17.1958 13.5891 17.0465 13.5789 16.8947 13.5789C15.1503 13.5789 13.7205 14.926 13.5888 16.6367C12.0042 16.8278 10.5638 17.1763 9.33123 17.6003C11.2865 13.125 15.2297 9.71699 20.0448 8.49262C18.8965 10.252 18.0067 11.9586 17.3422 13.6089ZM18.8286 14.201C19.6074 12.268 20.725 10.2306 22.2564 8.0939C22.8291 8.03184 23.4108 8 24 8C28.0326 8 31.7167 9.49183 34.5306 11.9537C33.881 12.2337 33.3389 12.7154 32.9829 13.3199C27.3285 13.01 23.0267 13.7167 19.6738 15.0854C19.4491 14.7409 19.162 14.4408 18.8286 14.201ZM32.5278 14.8985C27.2 14.6463 23.2337 15.3445 20.1977 16.6006C20.2046 16.6797 20.2088 16.7595 20.2101 16.84C20.8543 16.9592 21.5061 17.11 22.1629 17.2961C25.5748 18.2628 29.0895 20.1706 32.3426 23.4662C32.6984 23.269 33.0942 23.1354 33.5149 23.0806C34.3211 21.5354 34.9956 19.9306 35.5198 18.3003C33.8398 18.1383 32.5263 16.7225 32.5263 15C32.5263 14.966 32.5268 14.9322 32.5278 14.8985ZM37.2902 17.9837C36.7625 19.7949 36.0585 21.5796 35.2005 23.2976C36.4105 23.7919 37.2632 24.9806 37.2632 26.3684C37.2632 27.2232 36.9398 28.0023 36.4086 28.5903C36.9979 29.5046 37.5705 30.4817 38.1235 31.5251C39.3211 29.2821 40 26.7203 40 24C40 21.5195 39.4356 19.1709 38.4281 17.0755C38.1221 17.4563 37.7338 17.768 37.2902 17.9837ZM33.9474 29.6842C33.0903 29.6842 32.3093 29.3591 31.7207 28.8254C31.1852 29.5139 30.623 30.1793 30.0364 30.8176C29.0004 31.9451 27.8848 32.9917 26.701 33.9347C26.7928 34.2386 26.8421 34.5609 26.8421 34.8947C26.8421 35.8102 26.4711 36.639 25.8713 37.239C27.0681 38.1934 28.1298 38.8724 28.8377 39.2556C32.241 38.1774 35.1517 35.9918 37.1468 33.1218C36.4858 31.8042 35.7956 30.5945 35.082 29.485C34.728 29.6139 34.3459 29.6842 33.9474 29.6842ZM28.8583 29.735C29.5402 28.993 30.1871 28.2127 30.7955 27.4008C30.6891 27.0759 30.6316 26.7289 30.6316 26.3684C30.6316 25.6995 30.8296 25.0769 31.1703 24.556C28.1077 21.4653 24.8404 19.7177 21.7268 18.8355C21.0951 18.6566 20.4684 18.5128 19.8496 18.4007C19.3727 19.3346 18.4659 20.0126 17.3902 20.1738C17.1251 23.7443 17.9912 26.884 19.3806 29.5515C19.9316 30.6094 20.5641 31.5914 21.2392 32.494C21.8341 31.927 22.6396 31.5789 23.5263 31.5789C24.4418 31.5789 25.2706 31.95 25.8707 32.5498C26.9231 31.6973 27.9222 30.7537 28.8583 29.735Z" fill="#333333"/>
</svg>
