<svg width="48" height="48" viewBox="0 0 48 48" fill="none" xmlns="http://www.w3.org/2000/svg">
<path d="M6.75712 8.75288C7.24378 8.27222 7.90646 8 8.6 8H17.5858L23.2929 13.7071C23.4804 13.8946 23.7348 14 24 14H37.4C38.0935 14 38.7562 14.2722 39.2429 14.7529C39.7291 15.2331 40 15.8818 40 16.5556V21.4011L42 22.1767V16.5556C42 15.3433 41.5123 14.1833 40.6483 13.3299C39.7847 12.477 38.616 12 37.4 12H24.4142L18.7071 6.29289C18.5196 6.10536 18.2652 6 18 6H8.6C7.38399 6 6.21531 6.47698 5.35171 7.32991C4.4877 8.18326 4 9.34331 4 10.5556V35.4444C4 36.6567 4.4877 37.8167 5.35171 38.6701C6.21531 39.523 7.38398 40 8.6 40H25.1209C24.8311 39.364 24.5855 38.6969 24.3988 38H8.6C7.90646 38 7.24378 37.7278 6.75712 37.2471C6.27087 36.7669 6 36.1182 6 35.4444V10.5556C6 9.88182 6.27087 9.23313 6.75712 8.75288Z" fill="#333333"/>
<path d="M40.7071 32.7071C41.0976 32.3166 41.0976 31.6834 40.7071 31.2929C40.3166 30.9024 39.6834 30.9024 39.2929 31.2929L35 35.5858L33.7071 34.2929C33.3166 33.9024 32.6834 33.9024 32.2929 34.2929C31.9024 34.6834 31.9024 35.3166 32.2929 35.7071L34.2929 37.7071C34.6834 38.0976 35.3166 38.0976 35.7071 37.7071L40.7071 32.7071Z" fill="#333333"/>
<path fill-rule="evenodd" clip-rule="evenodd" d="M35.6557 23.0611C35.878 22.9796 36.122 22.9796 36.3443 23.0611L45.3443 26.3611C45.7381 26.5055 46 26.8805 46 27.3V35C46 38.7558 43.4569 41.7613 41.1501 43.7349C39.9739 44.7411 38.8027 45.5279 37.9277 46.0627C37.4891 46.3307 37.1222 46.537 36.8627 46.6775C36.7329 46.7477 36.6298 46.8016 36.5578 46.8386L36.4735 46.8813L36.4499 46.8931L36.4407 46.8977L35.5602 46.8981L35.5571 46.8966L35.5501 46.8931L35.5265 46.8813L35.4422 46.8386C35.3702 46.8016 35.2671 46.7477 35.1373 46.6775C34.8778 46.537 34.5109 46.3307 34.0723 46.0627C33.1973 45.5279 32.0261 44.7411 30.8499 43.7349C28.5431 41.7613 26 38.7558 26 35V27.3C26 26.8805 26.2619 26.5055 26.6557 26.3611L35.6557 23.0611ZM36 44.8699C36.2261 44.7459 36.5288 44.5736 36.8848 44.3561C37.6973 43.8596 38.7761 43.1339 39.8499 42.2151C42.0431 40.3387 44 37.8442 44 35V27.9984L36 25.0651L28 27.9984V35C28 37.8442 29.9569 40.3387 32.1501 42.2151C33.2239 43.1339 34.3027 43.8596 35.1152 44.3561C35.4712 44.5736 35.7739 44.7459 36 44.8699Z" fill="#333333"/>
<path d="M35.5602 46.8981C35.8373 47.0336 36.1635 47.0332 36.4407 46.8977L35.5602 46.8981Z" fill="#333333"/>
</svg>
