<svg width="48" height="48" viewBox="0 0 48 48" fill="none" xmlns="http://www.w3.org/2000/svg">
<path fill-rule="evenodd" clip-rule="evenodd" d="M36 11V18.2891L40.3753 16.2191C40.8066 15.8749 41.4361 15.9443 41.7809 16.3753C42.1259 16.8066 42.056 17.4359 41.6247 17.7809L41 17C41.6247 17.7809 41.6252 17.7805 41.6247 17.7809L41.6227 17.7825L41.6202 17.7845L41.6139 17.7895L41.5955 17.8037C41.5884 17.8092 41.5802 17.8155 41.5708 17.8226C41.5606 17.8303 41.5491 17.8389 41.5362 17.8485C41.4865 17.8853 41.4165 17.9357 41.3257 17.9977C41.1441 18.1217 40.8793 18.2922 40.5274 18.4932C39.8235 18.8955 38.7719 19.4197 37.3418 19.9398C34.4795 20.9806 30.1136 22 24 22C17.8865 22 13.5206 20.9806 10.6583 19.9398C9.22815 19.4197 8.1766 18.8955 7.47265 18.4932C7.12076 18.2922 6.85597 18.1217 6.67436 17.9977C6.58356 17.9357 6.51357 17.8853 6.46389 17.8485C6.43905 17.8301 6.4193 17.8151 6.40456 17.8037L6.38621 17.7895L6.37984 17.7845L6.37736 17.7825C6.37687 17.7821 6.37534 17.7809 7.00004 17L6.37534 17.7809C5.94408 17.4359 5.87416 16.8066 6.21917 16.3753C6.5633 15.9451 7.19028 15.8745 7.62144 16.2165L7.62493 16.2192L7.65435 16.2414C7.68377 16.2632 7.73292 16.2987 7.80228 16.3461C7.94098 16.4408 8.16056 16.5828 8.46493 16.7568C9.07347 17.1045 10.0219 17.5803 11.3418 18.0602C11.5517 18.1365 11.7711 18.213 12 18.2891V11C12 8.23858 14.2386 6 17 6H31C33.7615 6 36 8.23858 36 11ZM14 11C14 9.34315 15.3432 8 17 8H31C32.6569 8 34 9.34315 34 11V18.8705C31.4933 19.503 28.1907 20 24 20C19.8094 20 16.5068 19.503 14 18.8705V11Z" fill="#333333"/>
<path fill-rule="evenodd" clip-rule="evenodd" d="M29.4221 36.3913C28.9985 36.1264 28.6466 35.802 28.3663 35.4382C27.5109 36.9667 25.8761 38 24 38C22.1239 38 20.4892 36.9667 19.6338 35.4382C19.3535 35.802 19.0015 36.1264 18.578 36.3913L12.1212 40.4298C9.45701 42.0961 6.00004 40.1809 6.00004 37.0385L6.00004 28.9615C6.00004 25.8192 9.45702 23.9039 12.1212 25.5702L18.578 29.6087C19.0015 29.8736 19.3535 30.198 19.6338 30.5618C20.4892 29.0333 22.1239 28 24 28C25.8761 28 27.5109 29.0333 28.3663 30.5618C28.6466 30.198 28.9986 29.8736 29.4221 29.6087L35.8789 25.5702C38.5431 23.9039 42 25.8192 42 28.9615V37.0385C42 40.1808 38.5431 42.0961 35.8789 40.4298L29.4221 36.3913ZM30.4826 31.3044L36.9395 27.2658C38.2715 26.4327 40 27.3903 40 28.9615V37.0385C40 38.6097 38.2715 39.5673 36.9395 38.7341L30.4826 34.6956C29.2301 33.9122 29.2301 32.0878 30.4826 31.3044ZM17.5174 34.6956L11.0606 38.7342C9.72853 39.5673 8.00004 38.6097 8.00004 37.0385L8.00004 28.9615C8.00004 27.3903 9.72853 26.4327 11.0606 27.2659L17.5174 31.3044C18.77 32.0878 18.77 33.9122 17.5174 34.6956ZM24 36C25.6569 36 27 34.6569 27 33C27 31.3431 25.6569 30 24 30C22.3432 30 21 31.3431 21 33C21 34.6569 22.3432 36 24 36Z" fill="#333333"/>
</svg>
