<svg width="48" height="48" viewBox="0 0 48 48" fill="none" xmlns="http://www.w3.org/2000/svg">
<path d="M8.00007 9V13H10.0001V9H8.00007Z" fill="#333333"/>
<path fill-rule="evenodd" clip-rule="evenodd" d="M7 6C5.34315 6 4 7.34315 4 9V13C4 14.6569 5.34315 16 7 16H39C40.6569 16 42 14.6569 42 13V9C42 7.34314 40.6569 6 39 6H7ZM6 9C6 8.44772 6.44772 8 7 8H39C39.5523 8 40 8.44772 40 9V13C40 13.5523 39.5523 14 39 14H7C6.44772 14 6 13.5523 6 13V9Z" fill="#333333"/>
<path d="M8.00203 21V25H10.002V21H8.00203Z" fill="#333333"/>
<path fill-rule="evenodd" clip-rule="evenodd" d="M7.00302 18C5.34617 18 4.00302 19.3431 4.00302 21V25C4.00302 26.6569 5.34617 28 7.00302 28H39.003C40.6599 28 42.003 26.6569 42.003 25V21C42.003 19.3431 40.6599 18 39.003 18H7.00302ZM6.00302 21C6.00302 20.4477 6.45074 20 7.00302 20H39.003C39.5553 20 40.003 20.4477 40.003 21V25C40.003 25.5523 39.5553 26 39.003 26H7.00302C6.45074 26 6.00302 25.5523 6.00302 25V21Z" fill="#333333"/>
<path d="M7 30H32.5351C32.1948 30.5883 32 31.2714 32 32H7C6.44772 32 6 32.4477 6 33V37C6 37.5523 6.44772 38 7 38H32V40H7C5.34315 40 4 38.6569 4 37V33C4 31.3431 5.34315 30 7 30Z" fill="#333333"/>
<path d="M8.00007 37V33H10.0001V37H8.00007Z" fill="#333333"/>
<path d="M35 30C34.4477 30 34 30.4477 34 31V41C34 41.5523 34.4477 42 35 42C35.5523 42 36 41.5523 36 41V33.4142L44.2929 41.7071C44.6834 42.0976 45.3166 42.0976 45.7071 41.7071C46.0976 41.3166 46.0976 40.6834 45.7071 40.2929L37.4142 32H45C45.5523 32 46 31.5523 46 31C46 30.4477 45.5523 30 45 30H35Z" fill="#333333"/>
</svg>
