<svg width="48" height="48" viewBox="0 0 48 48" fill="none" xmlns="http://www.w3.org/2000/svg">
<path fill-rule="evenodd" clip-rule="evenodd" d="M20 10C19.4477 10 19 10.4477 19 11C19 11.5523 19.4477 12 20 12V22.9998C20 23.552 20.4477 23.9998 21 23.9998H30V25C30 25.5523 30.4477 26 31 26C31.5523 26 32 25.5523 32 25V21.643L22.4739 10H20ZM29.7077 21.9998L22 12.5792V21.9998H29.7077Z" fill="#333333"/>
<path fill-rule="evenodd" clip-rule="evenodd" d="M14.1758 15.907C14.1758 8.175 20.4438 1.90698 28.1758 1.90698C35.9077 1.90698 42.1758 8.175 42.1758 15.907C42.1758 19.4836 40.8346 22.7469 38.6277 25.2215C38.6551 25.2436 38.6816 25.2674 38.7071 25.2929L46.7071 33.2929C47.0976 33.6834 47.0976 34.3166 46.7071 34.7071C46.3166 35.0976 45.6834 35.0976 45.2929 34.7071L37.2929 26.7071C37.2609 26.6752 37.2316 26.6416 37.2049 26.6067C34.7673 28.6658 31.6165 29.907 28.1758 29.907C20.4438 29.907 14.1758 23.639 14.1758 15.907ZM28.1758 3.90698C21.5483 3.90698 16.1758 9.27956 16.1758 15.907C16.1758 22.5344 21.5483 27.907 28.1758 27.907C34.8032 27.907 40.1758 22.5344 40.1758 15.907C40.1758 9.27956 34.8032 3.90698 28.1758 3.90698Z" fill="#333333"/>
<path d="M11.5 14.5888C10.5832 14.5888 9.69695 14.9397 9.03803 15.5752C8.37787 16.2119 8 17.0833 8 18V38.5842C8 39.5008 8.37787 40.3722 9.03803 41.0089C9.69695 41.6444 10.5832 41.9954 11.5 41.9954L26.5 41.9955C27.4168 41.9955 28.303 41.6446 28.962 41.0091C29.6221 40.3724 30 39.501 30 38.5844V33C30 32.4477 29.5523 32 29 32C28.4477 32 28 32.4477 28 33V38.5844C28 38.9467 27.8511 39.3019 27.5736 39.5696C27.2948 39.8384 26.9093 39.9955 26.5 39.9955L11.5 39.9954C11.0907 39.9954 10.7052 39.8382 10.4264 39.5694C10.1489 39.3017 10 38.9465 10 38.5842V18C10 17.6376 10.1489 17.2824 10.4264 17.0148C10.7052 16.7459 11.0907 16.5888 11.5 16.5888C12.0523 16.5888 12.5 16.1411 12.5 15.5888C12.5 15.0365 12.0523 14.5888 11.5 14.5888Z" fill="#333333"/>
<path d="M22 30L14 29.9999C13.4477 29.9999 13 30.4476 13 30.9999C13 31.5522 13.4477 31.9999 14 31.9999L22 32C22.5523 32 23 31.5523 23 31C23 30.4477 22.5523 30 22 30Z" fill="#333333"/>
<path d="M13 34.9999C13 34.4476 13.4477 33.9999 14 33.9999H24C24.5523 33.9999 25 34.4476 25 34.9999C25 35.5522 24.5523 35.9999 24 35.9999H14C13.4477 35.9999 13 35.5522 13 34.9999Z" fill="#333333"/>
<path d="M14 25.9999C13.4477 25.9999 13 26.4476 13 26.9999C13 27.5522 13.4477 27.9999 14 27.9999L16 28C16.5523 28 17 27.5523 17 27C17 26.4477 16.5523 26 16 26L14 25.9999Z" fill="#333333"/>
</svg>
