<svg width="48" height="48" viewBox="0 0 48 48" fill="none" xmlns="http://www.w3.org/2000/svg">
<path d="M12 29.731C12.1387 29.731 12.2753 29.7404 12.409 29.7586L18.2253 18.4914C17.6013 17.8598 17.0729 17.1133 16.6752 16.2657C14.7983 12.2658 16.5194 7.50183 20.5192 5.62502C24.5191 3.7482 29.2831 5.46926 31.1599 9.4691C31.8814 11.0067 32.0713 12.6602 31.8033 14.2178C31.6429 15.1505 31.3183 16.049 30.8455 16.8689L29.1129 15.8699C29.4679 15.2542 29.7118 14.5792 29.8323 13.8787C30.0331 12.7114 29.8914 11.474 29.3493 10.3187C27.9417 7.31879 24.3687 6.028 21.3688 7.43561C18.3689 8.84322 17.0781 12.4162 18.4857 15.4161C18.8774 16.2508 19.435 16.9511 20.1001 17.4985L20.7237 18.0117L14.186 30.6764C14.6908 31.2132 15 31.936 15 32.731C15 34.3878 13.6569 35.731 12 35.731C10.3431 35.731 9 34.3878 9 32.731C9 31.0741 10.3431 29.731 12 29.731Z" fill="#333333"/>
<path d="M24 15.9309C24.2887 15.9309 24.5679 15.8901 24.8321 15.814L32.6433 27.6813L33.4293 27.3079C34.2073 26.9383 35.0781 26.731 36.0002 26.731C39.3139 26.731 42.0002 29.4173 42.0002 32.731C42.0002 36.0447 39.3139 38.731 36.0002 38.731C34.724 38.731 33.5436 38.3337 32.5721 37.656C31.9892 37.2494 31.4817 36.7418 31.0751 36.1589L29.4347 37.3031C29.9761 38.0793 30.6516 38.7549 31.4279 39.2963C32.7241 40.2006 34.3017 40.731 36.0002 40.731C40.4185 40.731 44.0002 37.1493 44.0002 32.731C44.0002 28.3127 40.4185 24.731 36.0002 24.731C35.0852 24.731 34.2046 24.885 33.384 25.1689L26.4596 14.649C26.8002 14.1623 27 13.57 27 12.9309C27 11.2741 25.6569 9.93092 24 9.93092C22.3431 9.93092 21 11.2741 21 12.9309C21 14.5878 22.3431 15.9309 24 15.9309Z" fill="#333333"/>
<path d="M6 32.731C6 29.4173 8.68629 26.731 12 26.731V24.731C7.58172 24.731 4 28.3127 4 32.731C4 37.1493 7.58172 40.731 12 40.731C16.0342 40.731 19.4375 37.9466 19.9329 34H33.2808C33.7589 35.0225 34.7967 35.731 36 35.731C37.6569 35.731 39 34.3878 39 32.731C39 31.0741 37.6569 29.731 36 29.731C34.5953 29.731 33.416 30.6964 33.0897 32H17.9949V33C17.9949 36.2639 15.3648 38.731 12 38.731C8.68629 38.731 6 36.0447 6 32.731Z" fill="#333333"/>
</svg>
