<svg width="48" height="48" viewBox="0 0 48 48" fill="none" xmlns="http://www.w3.org/2000/svg">
<path d="M10.0001 9V13H12.0001V9H10.0001Z" fill="#333333"/>
<path fill-rule="evenodd" clip-rule="evenodd" d="M9 6C7.34315 6 6 7.34315 6 9V13C6 14.6569 7.34315 16 9 16H41C42.6569 16 44 14.6569 44 13V9C44 7.34314 42.6569 6 41 6H9ZM8 9C8 8.44772 8.44772 8 9 8H41C41.5523 8 42 8.44772 42 9V13C42 13.5523 41.5523 14 41 14H9C8.44772 14 8 13.5523 8 13V9Z" fill="#333333"/>
<path d="M10.0001 21V25H12.0001V21H10.0001Z" fill="#333333"/>
<path fill-rule="evenodd" clip-rule="evenodd" d="M9 18C7.34315 18 6 19.3431 6 21V25C6 26.6569 7.34315 28 9 28H41C42.6569 28 44 26.6569 44 25V21C44 19.3431 42.6569 18 41 18H9ZM8 21C8 20.4477 8.44772 20 9 20H41C41.5523 20 42 20.4477 42 21V25C42 25.5523 41.5523 26 41 26H9C8.44772 26 8 25.5523 8 25V21Z" fill="#333333"/>
<path d="M10.0001 37V33H12.0001V37H10.0001Z" fill="#333333"/>
<path fill-rule="evenodd" clip-rule="evenodd" d="M6 33C6 31.3431 7.34315 30 9 30H41C42.6569 30 44 31.3431 44 33V37C44 38.6569 42.6569 40 41 40H9C7.34315 40 6 38.6569 6 37V33ZM9 32C8.44772 32 8 32.4477 8 33V37C8 37.5523 8.44772 38 9 38H41C41.5523 38 42 37.5523 42 37V33C42 32.4477 41.5523 32 41 32H9Z" fill="#333333"/>
</svg>
