<svg width="48" height="48" viewBox="0 0 48 48" fill="none" xmlns="http://www.w3.org/2000/svg">
<path fill-rule="evenodd" clip-rule="evenodd" d="M31.285 5.30088C31.6711 4.906 32.3042 4.89888 32.6991 5.28499L39.8241 12.2517C40.0165 12.4398 40.125 12.6976 40.125 12.9667C40.125 13.2358 40.0165 13.4935 39.8241 13.6817L32.6991 20.6483C32.3042 21.0345 31.6711 21.0273 31.285 20.6324C30.8989 20.2376 30.906 19.6044 31.3009 19.2183L36.6719 13.9667H16.125C14.4934 13.9667 12.933 14.6006 11.786 15.7222C10.6397 16.8429 10 18.3582 10 19.9333V23.4167C10 23.969 9.55228 24.4167 9 24.4167C8.44772 24.4167 8 23.969 8 23.4167V19.9333C8 17.8131 8.86161 15.7844 10.3877 14.2921C11.9131 12.8007 13.9773 11.9667 16.125 11.9667H36.6719L31.3009 6.71501C30.906 6.3289 30.8989 5.69577 31.285 5.30088ZM39 23.9C39.5523 23.9 40 24.3477 40 24.9V28.3833C40 30.5035 39.1384 32.5323 37.6123 34.0245C36.0045 35.5965 33.877 36 31.875 36H11.2446L16.7164 41.619C17.1017 42.0146 17.0933 42.6477 16.6977 43.0331C16.302 43.4184 15.6689 43.41 15.2836 43.0143L8.15857 35.6977C7.97068 35.5047 7.86855 35.2441 7.87532 34.9749C7.88208 34.7056 7.99716 34.4505 8.19451 34.2672L15.3195 27.6505C15.7242 27.2747 16.3569 27.2981 16.7328 27.7028C17.1086 28.1075 17.0852 28.7402 16.6805 29.1161L11.4214 34H31.875C33.6524 34 35.1494 33.6354 36.214 32.5945C37.3603 31.4737 38 29.9584 38 28.3833V24.9C38 24.3477 38.4477 23.9 39 23.9Z" fill="#333333"/>
</svg>
