<svg width="48" height="48" viewBox="0 0 48 48" fill="none" xmlns="http://www.w3.org/2000/svg">
<g clip-path="url(#clip0)">
<path d="M24.0001 43.8342C13.2901 43.8342 4.58008 35.1242 4.58008 24.4242H6.58008C6.58008 34.0242 14.3901 41.8442 24.0001 41.8442C33.6001 41.8442 41.4201 34.0342 41.4201 24.4242C41.4201 19.9942 39.7601 15.7842 36.7401 12.5542L38.2001 11.1842C41.5601 14.7842 43.4201 19.4842 43.4201 24.4242C43.4101 35.1242 34.7001 43.8342 24.0001 43.8342Z" fill="#333333"/>
<path d="M24.0002 40.4842C15.1402 40.4842 7.93018 33.2742 7.93018 24.4142C7.93018 15.8942 14.6002 8.89416 23.0002 8.37416V5.16416C23.0002 4.79416 23.2002 4.45416 23.5302 4.28416C23.8502 4.11416 24.2502 4.12416 24.5602 4.33416L34.6102 11.0342C34.8902 11.2242 35.0602 11.5342 35.0602 11.8642C35.0602 12.1942 34.8902 12.5142 34.6102 12.6942L24.5602 19.3942C24.2502 19.5942 23.8602 19.6142 23.5302 19.4442C23.2002 19.2742 23.0002 18.9342 23.0002 18.5642V15.4342C18.4802 15.9342 14.9502 19.7742 14.9502 24.4242C14.9502 29.4142 19.0102 33.4742 24.0002 33.4742V35.4742C17.9102 35.4742 12.9502 30.5142 12.9502 24.4242C12.9502 18.3342 17.9102 13.3742 24.0002 13.3742C24.5502 13.3742 25.0002 13.8242 25.0002 14.3742V16.6942L32.2402 11.8642L25.0002 7.03416V9.35416C25.0002 9.90416 24.5502 10.3542 24.0002 10.3542C16.2402 10.3542 9.93018 16.6642 9.93018 24.4242C9.93018 32.1842 16.2402 38.4942 24.0002 38.4942C31.7602 38.4942 38.0702 32.1842 38.0702 24.4242H40.0702C40.0702 33.2842 32.8602 40.4842 24.0002 40.4842Z" fill="#333333"/>
<path d="M18.18 28.4641C16.97 27.2141 16.3 25.5941 16.3 23.9041C16.3 21.0241 18.26 18.4441 21.17 17.4841L21.8 19.3841C19.71 20.0741 18.3 21.8941 18.3 23.9141C18.3 25.0841 18.77 26.2041 19.62 27.0841L18.18 28.4641Z" fill="#333333"/>
</g>
<defs>
<clipPath id="clip0">
<rect width="48" height="48" fill="white"/>
</clipPath>
</defs>
</svg>
